<svg width="73" height="73" viewBox="0 0 73 73" fill="none" xmlns="http://www.w3.org/2000/svg">
<g id="ant-design:reload-time-outline">
<circle id="Ellipse 44" cx="36.5002" cy="36.5002" r="27.01" fill="#F04304"/>
<path id="Vector" d="M38.2177 19.4619H34.7887C34.475 19.4619 34.2184 19.7186 34.2184 20.0322V39.6581C34.2184 39.8435 34.3039 40.0146 34.4536 40.1215L46.2377 48.7261C46.4944 48.9114 46.8508 48.8615 47.0362 48.6049L49.075 45.8246C49.2675 45.5608 49.2105 45.2044 48.9538 45.0262L38.788 37.6763V20.0322C38.788 19.7186 38.5314 19.4619 38.2177 19.4619ZM53.887 24.8229L65.0652 27.5532C65.4216 27.6388 65.7709 27.3679 65.7709 27.0043L65.828 15.4911C65.828 15.0135 65.279 14.7426 64.9083 15.042L53.6732 23.8177C53.5883 23.8834 53.5236 23.9717 53.4867 24.0725C53.4497 24.1733 53.442 24.2825 53.4643 24.3875C53.4866 24.4925 53.5382 24.589 53.613 24.6661C53.6877 24.7431 53.7827 24.7974 53.887 24.8229ZM65.8422 46.288L61.8001 44.8979C61.6592 44.8495 61.505 44.8583 61.3704 44.9223C61.2358 44.9862 61.1316 45.1003 61.0801 45.24C60.9447 45.6036 60.8021 45.9601 60.6524 46.3165C59.3834 49.3178 57.5656 52.0196 55.2415 54.3365C52.9433 56.6419 50.2197 58.4794 47.2215 59.7474C44.1156 61.0605 40.7771 61.7345 37.405 61.7292C33.9974 61.7292 30.6967 61.0662 27.5885 59.7474C24.5904 58.4794 21.8667 56.6419 19.5685 54.3365C17.2516 52.0196 15.4337 49.3178 14.1576 46.3165C12.8517 43.2089 12.1827 39.8708 12.1901 36.5C12.1901 33.0924 12.853 29.7846 14.1719 26.6764C15.4408 23.6751 17.2587 20.9733 19.5827 18.6564C21.881 16.351 24.6046 14.5134 27.6028 13.2455C30.6967 11.9267 34.0045 11.2637 37.4121 11.2637C40.8198 11.2637 44.1204 11.9267 47.2286 13.2455C50.2268 14.5134 52.9504 16.351 55.2487 18.6564C55.9758 19.3906 56.6602 20.1534 57.2875 20.959L61.5506 17.6227C55.9402 10.451 47.2073 5.83858 37.3979 5.84571C20.317 5.85284 6.601 19.7257 6.77209 36.8137C6.94319 53.6023 20.595 67.1543 37.4121 67.1543C50.6363 67.1543 61.8999 58.7707 66.1915 47.0294C66.2985 46.73 66.1416 46.3949 65.8422 46.288Z" fill="white"/>
</g>
</svg>
