<svg width="73" height="73" viewBox="0 0 73 73" fill="none" xmlns="http://www.w3.org/2000/svg">
<g id="carbon:idea">
<circle id="Ellipse 44" cx="36" cy="27" r="19" fill="#F04304"/>
<path id="Vector" d="M24.4289 56.75C24.4289 55.6454 25.3243 54.75 26.4289 54.75H45.2414C46.346 54.75 47.2414 55.6454 47.2414 56.75V57.3125C47.2414 58.4171 46.346 59.3125 45.2414 59.3125H26.4289C25.3243 59.3125 24.4289 58.4171 24.4289 57.3125V56.75ZM28.9914 65.875C28.9914 64.7704 29.8868 63.875 30.9914 63.875H40.6789C41.7835 63.875 42.6789 64.7704 42.6789 65.875V66.4375C42.6789 67.5421 41.7835 68.4375 40.6789 68.4375H30.9914C29.8868 68.4375 28.9914 67.5421 28.9914 66.4375V65.875ZM35.8352 4.5625C29.7849 4.5625 23.9825 6.96595 19.7043 11.2441C15.4261 15.5223 13.0227 21.3247 13.0227 27.375C12.8684 30.6904 13.5035 33.9951 14.8757 37.0172C16.2479 40.0392 18.3181 42.6923 20.9158 44.7581C22.4077 46.1456 23.4507 47.1428 23.994 48.2537C24.4792 49.246 25.3243 50.1875 26.4289 50.1875H26.9914C28.096 50.1875 29.0192 49.2806 28.7852 48.2011C28.1337 45.1949 26.041 43.2569 23.9955 41.3819C21.8633 39.7491 20.164 37.6184 19.0465 35.1765C17.9289 32.7346 17.4272 30.0559 17.5852 27.375C17.5852 22.5348 19.5079 17.8928 22.9305 14.4703C26.353 11.0478 30.995 9.125 35.8352 9.125C40.6754 9.125 45.3173 11.0478 48.7399 14.4703C52.1624 17.8928 54.0852 22.5348 54.0852 27.375C54.2405 30.0578 53.7353 32.7378 52.6136 35.1799C51.492 37.622 49.7884 39.7516 47.652 41.3819C45.6223 43.2788 43.5295 45.1757 42.882 48.2006C42.6508 49.2807 43.5743 50.1875 44.6789 50.1875H45.2414C46.346 50.1875 47.1901 49.2466 47.6712 48.2523C48.2096 47.1397 49.248 46.1375 50.7545 44.7353C53.3505 42.673 55.4196 40.0238 56.7919 37.0058C58.1641 33.9877 58.8001 30.6869 58.6477 27.375C58.6477 24.3792 58.0576 21.4128 56.9112 18.645C55.7647 15.8773 54.0844 13.3625 51.966 11.2441C49.8477 9.12579 47.3329 7.44543 44.5651 6.299C41.7974 5.15256 38.8309 4.5625 35.8352 4.5625Z" fill="white"/>
</g>
</svg>
