<svg width="91" height="94" viewBox="0 0 91 94" fill="none" xmlns="http://www.w3.org/2000/svg">
<g filter="url(#filter0_f_695_67)">
<g filter="url(#filter1_f_695_67)">
<path d="M12.4334 6C8.90266 6 6 8.94141 6 12.5193V53.4582C6 57.036 8.90266 59.9774 12.4334 59.9774H35.1115L30.1549 68.3028C29.6117 69.1801 29.8833 70.3154 30.7321 70.8658C31.0376 71.055 31.3771 71.1582 31.7336 71.1582H59.2834C60.3019 71.1582 61.1336 70.3498 61.1336 69.3177C61.1336 68.9565 61.0488 68.6124 60.8451 68.3028L55.8885 59.9774H78.5666C82.0973 59.9774 85 57.036 85 53.4582V12.5193C85 8.94141 82.0973 6 78.5666 6H12.4334ZM12.4334 9.71546H78.5496C80.1113 9.71546 81.2995 10.9368 81.2995 12.5021V53.441C81.2995 55.0235 80.0943 56.2276 78.5496 56.2276H12.4334C10.8717 56.2276 9.6835 55.0063 9.6835 53.441V12.5193C9.6835 10.9368 10.8887 9.73267 12.4334 9.73267V9.71546ZM49.8285 18.9869C49.1495 19.0901 48.5894 19.5546 48.3687 20.2082L39.1854 44.4103C38.829 45.3736 39.3043 46.4573 40.2548 46.8185C41.2054 47.1797 42.2578 46.6981 42.6313 45.752L51.8146 21.5499C52.205 20.6038 51.7636 19.503 50.83 19.1073C50.5075 18.9697 50.168 18.9353 49.8285 18.9869ZM34.4835 23.6313C34.1949 23.6313 33.9063 23.7001 33.6517 23.8377L18.9517 31.2858C18.035 31.733 17.6616 32.8511 18.1029 33.78C18.2896 34.1584 18.5782 34.4508 18.9517 34.64L33.6517 42.0882C34.5683 42.5526 35.6717 42.1914 36.13 41.2625C36.5883 40.3336 36.2318 39.2156 35.3152 38.7511L23.9252 32.9887L35.3152 27.2091C36.2318 26.7791 36.6392 25.661 36.1979 24.7321C35.8924 24.0613 35.2134 23.6313 34.4835 23.6657V23.6313ZM56.4656 23.6313C55.4471 23.6313 54.6324 24.4741 54.6324 25.489C54.6324 26.2114 55.0397 26.8651 55.6848 27.1747L67.0748 32.9543L55.6848 38.7167C54.7682 39.1812 54.4117 40.3164 54.87 41.2281C55.3283 42.1398 56.4486 42.5182 57.3483 42.0538L72.0483 34.6056C72.965 34.1584 73.3384 33.0403 72.8971 32.1115C72.7104 31.733 72.4218 31.4406 72.0483 31.2514L57.3483 23.8033C57.0767 23.6657 56.7712 23.5968 56.4656 23.5968V23.6313ZM39.4231 59.9602H51.5939L56.0073 67.4084H35.0097L39.4231 59.9602ZM17.7804 74.8565C17.1523 74.9253 16.5922 75.3037 16.3206 75.8714L11.7374 85.1772C11.2791 86.0889 11.6356 87.207 12.5352 87.6714C12.7899 87.809 13.0784 87.8778 13.367 87.8778H69.3833C70.4018 87.8778 71.2336 87.0694 71.2505 86.0373C71.2505 85.0052 70.4527 84.1624 69.4342 84.1451C69.4173 84.1451 69.4003 84.1451 69.3833 84.1451H16.3036L19.0535 78.5547H71.9126L75.9865 86.8113C76.3599 87.7746 77.4123 88.239 78.3629 87.8778C79.3135 87.4994 79.7718 86.4329 79.4153 85.4696C79.3814 85.3664 79.3305 85.2632 79.2626 85.16L74.6794 75.8542C74.3739 75.2349 73.7288 74.8393 73.0498 74.8393H17.9332C17.9332 74.8393 17.8144 74.8393 17.7634 74.8393L17.7804 74.8565Z" fill="#F04301"/>
</g>
<g filter="url(#filter2_f_695_67)">
<path d="M12.4334 6C8.90266 6 6 8.94141 6 12.5193V53.4582C6 57.036 8.90266 59.9774 12.4334 59.9774H35.1115L30.1549 68.3028C29.6117 69.1801 29.8833 70.3154 30.7321 70.8658C31.0376 71.055 31.3771 71.1582 31.7336 71.1582H59.2834C60.3019 71.1582 61.1336 70.3498 61.1336 69.3177C61.1336 68.9565 61.0488 68.6124 60.8451 68.3028L55.8885 59.9774H78.5666C82.0973 59.9774 85 57.036 85 53.4582V12.5193C85 8.94141 82.0973 6 78.5666 6H12.4334ZM12.4334 9.71546H78.5496C80.1113 9.71546 81.2995 10.9368 81.2995 12.5021V53.441C81.2995 55.0235 80.0943 56.2276 78.5496 56.2276H12.4334C10.8717 56.2276 9.6835 55.0063 9.6835 53.441V12.5193C9.6835 10.9368 10.8887 9.73267 12.4334 9.73267V9.71546ZM49.8285 18.9869C49.1495 19.0901 48.5894 19.5546 48.3687 20.2082L39.1854 44.4103C38.829 45.3736 39.3043 46.4573 40.2548 46.8185C41.2054 47.1797 42.2578 46.6981 42.6313 45.752L51.8146 21.5499C52.205 20.6038 51.7636 19.503 50.83 19.1073C50.5075 18.9697 50.168 18.9353 49.8285 18.9869ZM34.4835 23.6313C34.1949 23.6313 33.9063 23.7001 33.6517 23.8377L18.9517 31.2858C18.035 31.733 17.6616 32.8511 18.1029 33.78C18.2896 34.1584 18.5782 34.4508 18.9517 34.64L33.6517 42.0882C34.5683 42.5526 35.6717 42.1914 36.13 41.2625C36.5883 40.3336 36.2318 39.2156 35.3152 38.7511L23.9252 32.9887L35.3152 27.2091C36.2318 26.7791 36.6392 25.661 36.1979 24.7321C35.8924 24.0613 35.2134 23.6313 34.4835 23.6657V23.6313ZM56.4656 23.6313C55.4471 23.6313 54.6324 24.4741 54.6324 25.489C54.6324 26.2114 55.0397 26.8651 55.6848 27.1747L67.0748 32.9543L55.6848 38.7167C54.7682 39.1812 54.4117 40.3164 54.87 41.2281C55.3283 42.1398 56.4486 42.5182 57.3483 42.0538L72.0483 34.6056C72.965 34.1584 73.3384 33.0403 72.8971 32.1115C72.7104 31.733 72.4218 31.4406 72.0483 31.2514L57.3483 23.8033C57.0767 23.6657 56.7712 23.5968 56.4656 23.5968V23.6313ZM39.4231 59.9602H51.5939L56.0073 67.4084H35.0097L39.4231 59.9602ZM17.7804 74.8565C17.1523 74.9253 16.5922 75.3037 16.3206 75.8714L11.7374 85.1772C11.2791 86.0889 11.6356 87.207 12.5352 87.6714C12.7899 87.809 13.0784 87.8778 13.367 87.8778H69.3833C70.4018 87.8778 71.2336 87.0694 71.2505 86.0373C71.2505 85.0052 70.4527 84.1624 69.4342 84.1451C69.4173 84.1451 69.4003 84.1451 69.3833 84.1451H16.3036L19.0535 78.5547H71.9126L75.9865 86.8113C76.3599 87.7746 77.4123 88.239 78.3629 87.8778C79.3135 87.4994 79.7718 86.4329 79.4153 85.4696C79.3814 85.3664 79.3305 85.2632 79.2626 85.16L74.6794 75.8542C74.3739 75.2349 73.7288 74.8393 73.0498 74.8393H17.9332C17.9332 74.8393 17.8144 74.8393 17.7634 74.8393L17.7804 74.8565Z" fill="#AB441F"/>
</g>
</g>
<path d="M12.4334 6C8.90266 6 6 8.94141 6 12.5193V53.4582C6 57.036 8.90266 59.9774 12.4334 59.9774H35.1115L30.1549 68.3028C29.6117 69.1801 29.8833 70.3154 30.7321 70.8658C31.0376 71.055 31.3771 71.1582 31.7336 71.1582H59.2834C60.3019 71.1582 61.1336 70.3498 61.1336 69.3177C61.1336 68.9565 61.0488 68.6124 60.8451 68.3028L55.8885 59.9774H78.5666C82.0973 59.9774 85 57.036 85 53.4582V12.5193C85 8.94141 82.0973 6 78.5666 6H12.4334ZM12.4334 9.71546H78.5496C80.1113 9.71546 81.2995 10.9368 81.2995 12.5021V53.441C81.2995 55.0235 80.0943 56.2276 78.5496 56.2276H12.4334C10.8717 56.2276 9.6835 55.0063 9.6835 53.441V12.5193C9.6835 10.9368 10.8887 9.73267 12.4334 9.73267V9.71546ZM49.8285 18.9869C49.1495 19.0901 48.5894 19.5546 48.3687 20.2082L39.1854 44.4103C38.829 45.3736 39.3043 46.4573 40.2548 46.8185C41.2054 47.1797 42.2578 46.6981 42.6313 45.752L51.8146 21.5499C52.205 20.6038 51.7636 19.503 50.83 19.1073C50.5075 18.9697 50.168 18.9353 49.8285 18.9869ZM34.4835 23.6313C34.1949 23.6313 33.9063 23.7001 33.6517 23.8377L18.9517 31.2858C18.035 31.733 17.6616 32.8511 18.1029 33.78C18.2896 34.1584 18.5782 34.4508 18.9517 34.64L33.6517 42.0882C34.5683 42.5526 35.6717 42.1914 36.13 41.2625C36.5883 40.3336 36.2318 39.2156 35.3152 38.7511L23.9252 32.9887L35.3152 27.2091C36.2318 26.7791 36.6392 25.661 36.1979 24.7321C35.8924 24.0613 35.2134 23.6313 34.4835 23.6657V23.6313ZM56.4656 23.6313C55.4471 23.6313 54.6324 24.4741 54.6324 25.489C54.6324 26.2114 55.0397 26.8651 55.6848 27.1747L67.0748 32.9543L55.6848 38.7167C54.7682 39.1812 54.4117 40.3164 54.87 41.2281C55.3283 42.1398 56.4486 42.5182 57.3483 42.0538L72.0483 34.6056C72.965 34.1584 73.3384 33.0403 72.8971 32.1115C72.7104 31.733 72.4218 31.4406 72.0483 31.2514L57.3483 23.8033C57.0767 23.6657 56.7712 23.5968 56.4656 23.5968V23.6313ZM39.4231 59.9602H51.5939L56.0073 67.4084H35.0097L39.4231 59.9602ZM17.7804 74.8565C17.1523 74.9253 16.5922 75.3037 16.3206 75.8714L11.7374 85.1772C11.2791 86.0889 11.6356 87.207 12.5352 87.6714C12.7899 87.809 13.0784 87.8778 13.367 87.8778H69.3833C70.4018 87.8778 71.2336 87.0694 71.2505 86.0373C71.2505 85.0052 70.4527 84.1624 69.4342 84.1451C69.4173 84.1451 69.4003 84.1451 69.3833 84.1451H16.3036L19.0535 78.5547H71.9126L75.9865 86.8113C76.3599 87.7746 77.4123 88.239 78.3629 87.8778C79.3135 87.4994 79.7718 86.4329 79.4153 85.4696C79.3814 85.3664 79.3305 85.2632 79.2626 85.16L74.6794 75.8542C74.3739 75.2349 73.7288 74.8393 73.0498 74.8393H17.9332C17.9332 74.8393 17.8144 74.8393 17.7634 74.8393L17.7804 74.8565Z" fill="white"/>
<g filter="url(#filter3_f_695_67)">
<g filter="url(#filter4_f_695_67)">
<path d="M12.4334 6C8.90266 6 6 8.94141 6 12.5193V53.4582C6 57.036 8.90266 59.9774 12.4334 59.9774H35.1115L30.1549 68.3028C29.6117 69.1801 29.8833 70.3154 30.7321 70.8658C31.0376 71.055 31.3771 71.1582 31.7336 71.1582H59.2834C60.3019 71.1582 61.1336 70.3498 61.1336 69.3177C61.1336 68.9565 61.0488 68.6124 60.8451 68.3028L55.8885 59.9774H78.5666C82.0973 59.9774 85 57.036 85 53.4582V12.5193C85 8.94141 82.0973 6 78.5666 6H12.4334ZM12.4334 9.71546H78.5496C80.1113 9.71546 81.2995 10.9368 81.2995 12.5021V53.441C81.2995 55.0235 80.0943 56.2276 78.5496 56.2276H12.4334C10.8717 56.2276 9.6835 55.0063 9.6835 53.441V12.5193C9.6835 10.9368 10.8887 9.73267 12.4334 9.73267V9.71546ZM49.8285 18.9869C49.1495 19.0901 48.5894 19.5546 48.3687 20.2082L39.1854 44.4103C38.829 45.3736 39.3043 46.4573 40.2548 46.8185C41.2054 47.1797 42.2578 46.6981 42.6313 45.752L51.8146 21.5499C52.205 20.6038 51.7636 19.503 50.83 19.1073C50.5075 18.9697 50.168 18.9353 49.8285 18.9869ZM34.4835 23.6313C34.1949 23.6313 33.9063 23.7001 33.6517 23.8377L18.9517 31.2858C18.035 31.733 17.6616 32.8511 18.1029 33.78C18.2896 34.1584 18.5782 34.4508 18.9517 34.64L33.6517 42.0882C34.5683 42.5526 35.6717 42.1914 36.13 41.2625C36.5883 40.3336 36.2318 39.2156 35.3152 38.7511L23.9252 32.9887L35.3152 27.2091C36.2318 26.7791 36.6392 25.661 36.1979 24.7321C35.8924 24.0613 35.2134 23.6313 34.4835 23.6657V23.6313ZM56.4656 23.6313C55.4471 23.6313 54.6324 24.4741 54.6324 25.489C54.6324 26.2114 55.0397 26.8651 55.6848 27.1747L67.0748 32.9543L55.6848 38.7167C54.7682 39.1812 54.4117 40.3164 54.87 41.2281C55.3283 42.1398 56.4486 42.5182 57.3483 42.0538L72.0483 34.6056C72.965 34.1584 73.3384 33.0403 72.8971 32.1115C72.7104 31.733 72.4218 31.4406 72.0483 31.2514L57.3483 23.8033C57.0767 23.6657 56.7712 23.5968 56.4656 23.5968V23.6313ZM39.4231 59.9602H51.5939L56.0073 67.4084H35.0097L39.4231 59.9602ZM17.7804 74.8565C17.1523 74.9253 16.5922 75.3037 16.3206 75.8714L11.7374 85.1772C11.2791 86.0889 11.6356 87.207 12.5352 87.6714C12.7899 87.809 13.0784 87.8778 13.367 87.8778H69.3833C70.4018 87.8778 71.2336 87.0694 71.2505 86.0373C71.2505 85.0052 70.4527 84.1624 69.4342 84.1451C69.4173 84.1451 69.4003 84.1451 69.3833 84.1451H16.3036L19.0535 78.5547H71.9126L75.9865 86.8113C76.3599 87.7746 77.4123 88.239 78.3629 87.8778C79.3135 87.4994 79.7718 86.4329 79.4153 85.4696C79.3814 85.3664 79.3305 85.2632 79.2626 85.16L74.6794 75.8542C74.3739 75.2349 73.7288 74.8393 73.0498 74.8393H17.9332C17.9332 74.8393 17.8144 74.8393 17.7634 74.8393L17.7804 74.8565Z" fill="#F04301"/>
</g>
<g filter="url(#filter5_f_695_67)">
<path d="M12.4334 6C8.90266 6 6 8.94141 6 12.5193V53.4582C6 57.036 8.90266 59.9774 12.4334 59.9774H35.1115L30.1549 68.3028C29.6117 69.1801 29.8833 70.3154 30.7321 70.8658C31.0376 71.055 31.3771 71.1582 31.7336 71.1582H59.2834C60.3019 71.1582 61.1336 70.3498 61.1336 69.3177C61.1336 68.9565 61.0488 68.6124 60.8451 68.3028L55.8885 59.9774H78.5666C82.0973 59.9774 85 57.036 85 53.4582V12.5193C85 8.94141 82.0973 6 78.5666 6H12.4334ZM12.4334 9.71546H78.5496C80.1113 9.71546 81.2995 10.9368 81.2995 12.5021V53.441C81.2995 55.0235 80.0943 56.2276 78.5496 56.2276H12.4334C10.8717 56.2276 9.6835 55.0063 9.6835 53.441V12.5193C9.6835 10.9368 10.8887 9.73267 12.4334 9.73267V9.71546ZM49.8285 18.9869C49.1495 19.0901 48.5894 19.5546 48.3687 20.2082L39.1854 44.4103C38.829 45.3736 39.3043 46.4573 40.2548 46.8185C41.2054 47.1797 42.2578 46.6981 42.6313 45.752L51.8146 21.5499C52.205 20.6038 51.7636 19.503 50.83 19.1073C50.5075 18.9697 50.168 18.9353 49.8285 18.9869ZM34.4835 23.6313C34.1949 23.6313 33.9063 23.7001 33.6517 23.8377L18.9517 31.2858C18.035 31.733 17.6616 32.8511 18.1029 33.78C18.2896 34.1584 18.5782 34.4508 18.9517 34.64L33.6517 42.0882C34.5683 42.5526 35.6717 42.1914 36.13 41.2625C36.5883 40.3336 36.2318 39.2156 35.3152 38.7511L23.9252 32.9887L35.3152 27.2091C36.2318 26.7791 36.6392 25.661 36.1979 24.7321C35.8924 24.0613 35.2134 23.6313 34.4835 23.6657V23.6313ZM56.4656 23.6313C55.4471 23.6313 54.6324 24.4741 54.6324 25.489C54.6324 26.2114 55.0397 26.8651 55.6848 27.1747L67.0748 32.9543L55.6848 38.7167C54.7682 39.1812 54.4117 40.3164 54.87 41.2281C55.3283 42.1398 56.4486 42.5182 57.3483 42.0538L72.0483 34.6056C72.965 34.1584 73.3384 33.0403 72.8971 32.1115C72.7104 31.733 72.4218 31.4406 72.0483 31.2514L57.3483 23.8033C57.0767 23.6657 56.7712 23.5968 56.4656 23.5968V23.6313ZM39.4231 59.9602H51.5939L56.0073 67.4084H35.0097L39.4231 59.9602ZM17.7804 74.8565C17.1523 74.9253 16.5922 75.3037 16.3206 75.8714L11.7374 85.1772C11.2791 86.0889 11.6356 87.207 12.5352 87.6714C12.7899 87.809 13.0784 87.8778 13.367 87.8778H69.3833C70.4018 87.8778 71.2336 87.0694 71.2505 86.0373C71.2505 85.0052 70.4527 84.1624 69.4342 84.1451C69.4173 84.1451 69.4003 84.1451 69.3833 84.1451H16.3036L19.0535 78.5547H71.9126L75.9865 86.8113C76.3599 87.7746 77.4123 88.239 78.3629 87.8778C79.3135 87.4994 79.7718 86.4329 79.4153 85.4696C79.3814 85.3664 79.3305 85.2632 79.2626 85.16L74.6794 75.8542C74.3739 75.2349 73.7288 74.8393 73.0498 74.8393H17.9332C17.9332 74.8393 17.8144 74.8393 17.7634 74.8393L17.7804 74.8565Z" fill="#AB441F"/>
</g>
</g>
<path d="M12.4334 6C8.90266 6 6 8.94141 6 12.5193V53.4582C6 57.036 8.90266 59.9774 12.4334 59.9774H35.1115L30.1549 68.3028C29.6117 69.1801 29.8833 70.3154 30.7321 70.8658C31.0376 71.055 31.3771 71.1582 31.7336 71.1582H59.2834C60.3019 71.1582 61.1336 70.3498 61.1336 69.3177C61.1336 68.9565 61.0488 68.6124 60.8451 68.3028L55.8885 59.9774H78.5666C82.0973 59.9774 85 57.036 85 53.4582V12.5193C85 8.94141 82.0973 6 78.5666 6H12.4334ZM12.4334 9.71546H78.5496C80.1113 9.71546 81.2995 10.9368 81.2995 12.5021V53.441C81.2995 55.0235 80.0943 56.2276 78.5496 56.2276H12.4334C10.8717 56.2276 9.6835 55.0063 9.6835 53.441V12.5193C9.6835 10.9368 10.8887 9.73267 12.4334 9.73267V9.71546ZM49.8285 18.9869C49.1495 19.0901 48.5894 19.5546 48.3687 20.2082L39.1854 44.4103C38.829 45.3736 39.3043 46.4573 40.2548 46.8185C41.2054 47.1797 42.2578 46.6981 42.6313 45.752L51.8146 21.5499C52.205 20.6038 51.7636 19.503 50.83 19.1073C50.5075 18.9697 50.168 18.9353 49.8285 18.9869ZM34.4835 23.6313C34.1949 23.6313 33.9063 23.7001 33.6517 23.8377L18.9517 31.2858C18.035 31.733 17.6616 32.8511 18.1029 33.78C18.2896 34.1584 18.5782 34.4508 18.9517 34.64L33.6517 42.0882C34.5683 42.5526 35.6717 42.1914 36.13 41.2625C36.5883 40.3336 36.2318 39.2156 35.3152 38.7511L23.9252 32.9887L35.3152 27.2091C36.2318 26.7791 36.6392 25.661 36.1979 24.7321C35.8924 24.0613 35.2134 23.6313 34.4835 23.6657V23.6313ZM56.4656 23.6313C55.4471 23.6313 54.6324 24.4741 54.6324 25.489C54.6324 26.2114 55.0397 26.8651 55.6848 27.1747L67.0748 32.9543L55.6848 38.7167C54.7682 39.1812 54.4117 40.3164 54.87 41.2281C55.3283 42.1398 56.4486 42.5182 57.3483 42.0538L72.0483 34.6056C72.965 34.1584 73.3384 33.0403 72.8971 32.1115C72.7104 31.733 72.4218 31.4406 72.0483 31.2514L57.3483 23.8033C57.0767 23.6657 56.7712 23.5968 56.4656 23.5968V23.6313ZM39.4231 59.9602H51.5939L56.0073 67.4084H35.0097L39.4231 59.9602ZM17.7804 74.8565C17.1523 74.9253 16.5922 75.3037 16.3206 75.8714L11.7374 85.1772C11.2791 86.0889 11.6356 87.207 12.5352 87.6714C12.7899 87.809 13.0784 87.8778 13.367 87.8778H69.3833C70.4018 87.8778 71.2336 87.0694 71.2505 86.0373C71.2505 85.0052 70.4527 84.1624 69.4342 84.1451C69.4173 84.1451 69.4003 84.1451 69.3833 84.1451H16.3036L19.0535 78.5547H71.9126L75.9865 86.8113C76.3599 87.7746 77.4123 88.239 78.3629 87.8778C79.3135 87.4994 79.7718 86.4329 79.4153 85.4696C79.3814 85.3664 79.3305 85.2632 79.2626 85.16L74.6794 75.8542C74.3739 75.2349 73.7288 74.8393 73.0498 74.8393H17.9332C17.9332 74.8393 17.8144 74.8393 17.7634 74.8393L17.7804 74.8565Z" fill="white"/>
<g filter="url(#filter6_f_695_67)">
<g filter="url(#filter7_f_695_67)">
<path d="M12.4334 6C8.90266 6 6 8.94141 6 12.5193V53.4582C6 57.036 8.90266 59.9774 12.4334 59.9774H35.1115L30.1549 68.3028C29.6117 69.1801 29.8833 70.3154 30.7321 70.8658C31.0376 71.055 31.3771 71.1582 31.7336 71.1582H59.2834C60.3019 71.1582 61.1336 70.3498 61.1336 69.3177C61.1336 68.9565 61.0488 68.6124 60.8451 68.3028L55.8885 59.9774H78.5666C82.0973 59.9774 85 57.036 85 53.4582V12.5193C85 8.94141 82.0973 6 78.5666 6H12.4334ZM12.4334 9.71546H78.5496C80.1113 9.71546 81.2995 10.9368 81.2995 12.5021V53.441C81.2995 55.0235 80.0943 56.2276 78.5496 56.2276H12.4334C10.8717 56.2276 9.6835 55.0063 9.6835 53.441V12.5193C9.6835 10.9368 10.8887 9.73267 12.4334 9.73267V9.71546ZM49.8285 18.9869C49.1495 19.0901 48.5894 19.5546 48.3687 20.2082L39.1854 44.4103C38.829 45.3736 39.3043 46.4573 40.2548 46.8185C41.2054 47.1797 42.2578 46.6981 42.6313 45.752L51.8146 21.5499C52.205 20.6038 51.7636 19.503 50.83 19.1073C50.5075 18.9697 50.168 18.9353 49.8285 18.9869ZM34.4835 23.6313C34.1949 23.6313 33.9063 23.7001 33.6517 23.8377L18.9517 31.2858C18.035 31.733 17.6616 32.8511 18.1029 33.78C18.2896 34.1584 18.5782 34.4508 18.9517 34.64L33.6517 42.0882C34.5683 42.5526 35.6717 42.1914 36.13 41.2625C36.5883 40.3336 36.2318 39.2156 35.3152 38.7511L23.9252 32.9887L35.3152 27.2091C36.2318 26.7791 36.6392 25.661 36.1979 24.7321C35.8924 24.0613 35.2134 23.6313 34.4835 23.6657V23.6313ZM56.4656 23.6313C55.4471 23.6313 54.6324 24.4741 54.6324 25.489C54.6324 26.2114 55.0397 26.8651 55.6848 27.1747L67.0748 32.9543L55.6848 38.7167C54.7682 39.1812 54.4117 40.3164 54.87 41.2281C55.3283 42.1398 56.4486 42.5182 57.3483 42.0538L72.0483 34.6056C72.965 34.1584 73.3384 33.0403 72.8971 32.1115C72.7104 31.733 72.4218 31.4406 72.0483 31.2514L57.3483 23.8033C57.0767 23.6657 56.7712 23.5968 56.4656 23.5968V23.6313ZM39.4231 59.9602H51.5939L56.0073 67.4084H35.0097L39.4231 59.9602ZM17.7804 74.8565C17.1523 74.9253 16.5922 75.3037 16.3206 75.8714L11.7374 85.1772C11.2791 86.0889 11.6356 87.207 12.5352 87.6714C12.7899 87.809 13.0784 87.8778 13.367 87.8778H69.3833C70.4018 87.8778 71.2336 87.0694 71.2505 86.0373C71.2505 85.0052 70.4527 84.1624 69.4342 84.1451C69.4173 84.1451 69.4003 84.1451 69.3833 84.1451H16.3036L19.0535 78.5547H71.9126L75.9865 86.8113C76.3599 87.7746 77.4123 88.239 78.3629 87.8778C79.3135 87.4994 79.7718 86.4329 79.4153 85.4696C79.3814 85.3664 79.3305 85.2632 79.2626 85.16L74.6794 75.8542C74.3739 75.2349 73.7288 74.8393 73.0498 74.8393H17.9332C17.9332 74.8393 17.8144 74.8393 17.7634 74.8393L17.7804 74.8565Z" fill="#F04301"/>
</g>
<g filter="url(#filter8_f_695_67)">
<path d="M12.4334 6C8.90266 6 6 8.94141 6 12.5193V53.4582C6 57.036 8.90266 59.9774 12.4334 59.9774H35.1115L30.1549 68.3028C29.6117 69.1801 29.8833 70.3154 30.7321 70.8658C31.0376 71.055 31.3771 71.1582 31.7336 71.1582H59.2834C60.3019 71.1582 61.1336 70.3498 61.1336 69.3177C61.1336 68.9565 61.0488 68.6124 60.8451 68.3028L55.8885 59.9774H78.5666C82.0973 59.9774 85 57.036 85 53.4582V12.5193C85 8.94141 82.0973 6 78.5666 6H12.4334ZM12.4334 9.71546H78.5496C80.1113 9.71546 81.2995 10.9368 81.2995 12.5021V53.441C81.2995 55.0235 80.0943 56.2276 78.5496 56.2276H12.4334C10.8717 56.2276 9.6835 55.0063 9.6835 53.441V12.5193C9.6835 10.9368 10.8887 9.73267 12.4334 9.73267V9.71546ZM49.8285 18.9869C49.1495 19.0901 48.5894 19.5546 48.3687 20.2082L39.1854 44.4103C38.829 45.3736 39.3043 46.4573 40.2548 46.8185C41.2054 47.1797 42.2578 46.6981 42.6313 45.752L51.8146 21.5499C52.205 20.6038 51.7636 19.503 50.83 19.1073C50.5075 18.9697 50.168 18.9353 49.8285 18.9869ZM34.4835 23.6313C34.1949 23.6313 33.9063 23.7001 33.6517 23.8377L18.9517 31.2858C18.035 31.733 17.6616 32.8511 18.1029 33.78C18.2896 34.1584 18.5782 34.4508 18.9517 34.64L33.6517 42.0882C34.5683 42.5526 35.6717 42.1914 36.13 41.2625C36.5883 40.3336 36.2318 39.2156 35.3152 38.7511L23.9252 32.9887L35.3152 27.2091C36.2318 26.7791 36.6392 25.661 36.1979 24.7321C35.8924 24.0613 35.2134 23.6313 34.4835 23.6657V23.6313ZM56.4656 23.6313C55.4471 23.6313 54.6324 24.4741 54.6324 25.489C54.6324 26.2114 55.0397 26.8651 55.6848 27.1747L67.0748 32.9543L55.6848 38.7167C54.7682 39.1812 54.4117 40.3164 54.87 41.2281C55.3283 42.1398 56.4486 42.5182 57.3483 42.0538L72.0483 34.6056C72.965 34.1584 73.3384 33.0403 72.8971 32.1115C72.7104 31.733 72.4218 31.4406 72.0483 31.2514L57.3483 23.8033C57.0767 23.6657 56.7712 23.5968 56.4656 23.5968V23.6313ZM39.4231 59.9602H51.5939L56.0073 67.4084H35.0097L39.4231 59.9602ZM17.7804 74.8565C17.1523 74.9253 16.5922 75.3037 16.3206 75.8714L11.7374 85.1772C11.2791 86.0889 11.6356 87.207 12.5352 87.6714C12.7899 87.809 13.0784 87.8778 13.367 87.8778H69.3833C70.4018 87.8778 71.2336 87.0694 71.2505 86.0373C71.2505 85.0052 70.4527 84.1624 69.4342 84.1451C69.4173 84.1451 69.4003 84.1451 69.3833 84.1451H16.3036L19.0535 78.5547H71.9126L75.9865 86.8113C76.3599 87.7746 77.4123 88.239 78.3629 87.8778C79.3135 87.4994 79.7718 86.4329 79.4153 85.4696C79.3814 85.3664 79.3305 85.2632 79.2626 85.16L74.6794 75.8542C74.3739 75.2349 73.7288 74.8393 73.0498 74.8393H17.9332C17.9332 74.8393 17.8144 74.8393 17.7634 74.8393L17.7804 74.8565Z" fill="#AB441F"/>
</g>
</g>
<path d="M12.4334 6C8.90266 6 6 8.94141 6 12.5193V53.4582C6 57.036 8.90266 59.9774 12.4334 59.9774H35.1115L30.1549 68.3028C29.6117 69.1801 29.8833 70.3154 30.7321 70.8658C31.0376 71.055 31.3771 71.1582 31.7336 71.1582H59.2834C60.3019 71.1582 61.1336 70.3498 61.1336 69.3177C61.1336 68.9565 61.0488 68.6124 60.8451 68.3028L55.8885 59.9774H78.5666C82.0973 59.9774 85 57.036 85 53.4582V12.5193C85 8.94141 82.0973 6 78.5666 6H12.4334ZM12.4334 9.71546H78.5496C80.1113 9.71546 81.2995 10.9368 81.2995 12.5021V53.441C81.2995 55.0235 80.0943 56.2276 78.5496 56.2276H12.4334C10.8717 56.2276 9.6835 55.0063 9.6835 53.441V12.5193C9.6835 10.9368 10.8887 9.73267 12.4334 9.73267V9.71546ZM49.8285 18.9869C49.1495 19.0901 48.5894 19.5546 48.3687 20.2082L39.1854 44.4103C38.829 45.3736 39.3043 46.4573 40.2548 46.8185C41.2054 47.1797 42.2578 46.6981 42.6313 45.752L51.8146 21.5499C52.205 20.6038 51.7636 19.503 50.83 19.1073C50.5075 18.9697 50.168 18.9353 49.8285 18.9869ZM34.4835 23.6313C34.1949 23.6313 33.9063 23.7001 33.6517 23.8377L18.9517 31.2858C18.035 31.733 17.6616 32.8511 18.1029 33.78C18.2896 34.1584 18.5782 34.4508 18.9517 34.64L33.6517 42.0882C34.5683 42.5526 35.6717 42.1914 36.13 41.2625C36.5883 40.3336 36.2318 39.2156 35.3152 38.7511L23.9252 32.9887L35.3152 27.2091C36.2318 26.7791 36.6392 25.661 36.1979 24.7321C35.8924 24.0613 35.2134 23.6313 34.4835 23.6657V23.6313ZM56.4656 23.6313C55.4471 23.6313 54.6324 24.4741 54.6324 25.489C54.6324 26.2114 55.0397 26.8651 55.6848 27.1747L67.0748 32.9543L55.6848 38.7167C54.7682 39.1812 54.4117 40.3164 54.87 41.2281C55.3283 42.1398 56.4486 42.5182 57.3483 42.0538L72.0483 34.6056C72.965 34.1584 73.3384 33.0403 72.8971 32.1115C72.7104 31.733 72.4218 31.4406 72.0483 31.2514L57.3483 23.8033C57.0767 23.6657 56.7712 23.5968 56.4656 23.5968V23.6313ZM39.4231 59.9602H51.5939L56.0073 67.4084H35.0097L39.4231 59.9602ZM17.7804 74.8565C17.1523 74.9253 16.5922 75.3037 16.3206 75.8714L11.7374 85.1772C11.2791 86.0889 11.6356 87.207 12.5352 87.6714C12.7899 87.809 13.0784 87.8778 13.367 87.8778H69.3833C70.4018 87.8778 71.2336 87.0694 71.2505 86.0373C71.2505 85.0052 70.4527 84.1624 69.4342 84.1451C69.4173 84.1451 69.4003 84.1451 69.3833 84.1451H16.3036L19.0535 78.5547H71.9126L75.9865 86.8113C76.3599 87.7746 77.4123 88.239 78.3629 87.8778C79.3135 87.4994 79.7718 86.4329 79.4153 85.4696C79.3814 85.3664 79.3305 85.2632 79.2626 85.16L74.6794 75.8542C74.3739 75.2349 73.7288 74.8393 73.0498 74.8393H17.9332C17.9332 74.8393 17.8144 74.8393 17.7634 74.8393L17.7804 74.8565Z" fill="white"/>
<defs>
<filter id="filter0_f_695_67" x="0" y="0" width="91" height="94" filterUnits="userSpaceOnUse" color-interpolation-filters="sRGB">
<feFlood flood-opacity="0" result="BackgroundImageFix"/>
<feBlend mode="normal" in="SourceGraphic" in2="BackgroundImageFix" result="shape"/>
<feGaussianBlur stdDeviation="3" result="effect1_foregroundBlur_695_67"/>
</filter>
<filter id="filter1_f_695_67" x="2" y="2" width="87" height="90" filterUnits="userSpaceOnUse" color-interpolation-filters="sRGB">
<feFlood flood-opacity="0" result="BackgroundImageFix"/>
<feBlend mode="normal" in="SourceGraphic" in2="BackgroundImageFix" result="shape"/>
<feGaussianBlur stdDeviation="2" result="effect1_foregroundBlur_695_67"/>
</filter>
<filter id="filter2_f_695_67" x="2" y="2" width="87" height="90" filterUnits="userSpaceOnUse" color-interpolation-filters="sRGB">
<feFlood flood-opacity="0" result="BackgroundImageFix"/>
<feBlend mode="normal" in="SourceGraphic" in2="BackgroundImageFix" result="shape"/>
<feGaussianBlur stdDeviation="2" result="effect1_foregroundBlur_695_67"/>
</filter>
<filter id="filter3_f_695_67" x="0" y="0" width="91" height="94" filterUnits="userSpaceOnUse" color-interpolation-filters="sRGB">
<feFlood flood-opacity="0" result="BackgroundImageFix"/>
<feBlend mode="normal" in="SourceGraphic" in2="BackgroundImageFix" result="shape"/>
<feGaussianBlur stdDeviation="3" result="effect1_foregroundBlur_695_67"/>
</filter>
<filter id="filter4_f_695_67" x="2" y="2" width="87" height="90" filterUnits="userSpaceOnUse" color-interpolation-filters="sRGB">
<feFlood flood-opacity="0" result="BackgroundImageFix"/>
<feBlend mode="normal" in="SourceGraphic" in2="BackgroundImageFix" result="shape"/>
<feGaussianBlur stdDeviation="2" result="effect1_foregroundBlur_695_67"/>
</filter>
<filter id="filter5_f_695_67" x="2" y="2" width="87" height="90" filterUnits="userSpaceOnUse" color-interpolation-filters="sRGB">
<feFlood flood-opacity="0" result="BackgroundImageFix"/>
<feBlend mode="normal" in="SourceGraphic" in2="BackgroundImageFix" result="shape"/>
<feGaussianBlur stdDeviation="2" result="effect1_foregroundBlur_695_67"/>
</filter>
<filter id="filter6_f_695_67" x="0" y="0" width="91" height="94" filterUnits="userSpaceOnUse" color-interpolation-filters="sRGB">
<feFlood flood-opacity="0" result="BackgroundImageFix"/>
<feBlend mode="normal" in="SourceGraphic" in2="BackgroundImageFix" result="shape"/>
<feGaussianBlur stdDeviation="3" result="effect1_foregroundBlur_695_67"/>
</filter>
<filter id="filter7_f_695_67" x="2" y="2" width="87" height="90" filterUnits="userSpaceOnUse" color-interpolation-filters="sRGB">
<feFlood flood-opacity="0" result="BackgroundImageFix"/>
<feBlend mode="normal" in="SourceGraphic" in2="BackgroundImageFix" result="shape"/>
<feGaussianBlur stdDeviation="2" result="effect1_foregroundBlur_695_67"/>
</filter>
<filter id="filter8_f_695_67" x="2" y="2" width="87" height="90" filterUnits="userSpaceOnUse" color-interpolation-filters="sRGB">
<feFlood flood-opacity="0" result="BackgroundImageFix"/>
<feBlend mode="normal" in="SourceGraphic" in2="BackgroundImageFix" result="shape"/>
<feGaussianBlur stdDeviation="2" result="effect1_foregroundBlur_695_67"/>
</filter>
</defs>
</svg>
