<svg width="73" height="73" viewBox="0 0 73 73" fill="none" xmlns="http://www.w3.org/2000/svg">
<g id="mdi:support">
<circle id="Ellipse 44" cx="36" cy="36" r="23" fill="#F04304"/>
<path id="Vector" d="M56.8411 45.0126C56.9064 44.9343 56.9596 44.8466 56.9977 44.7521C58.0252 42.2075 58.5822 39.4854 58.5822 36.4995C58.5822 34.6455 58.3424 32.8569 57.9182 31.1706C57.7893 30.6583 57.2688 30.3587 56.7502 30.4596C55.0537 30.7895 53.2918 30.9637 51.4647 30.9637C47.042 30.9685 42.683 29.9098 38.7552 27.8771C35.366 26.1231 32.3836 23.6883 29.991 20.7322C29.4953 20.1197 28.4953 20.2317 28.1478 20.9389C25.3612 26.6099 20.7309 31.1854 14.998 33.9009C14.6939 34.0449 14.4729 34.3269 14.4421 34.662C14.3868 35.2648 14.3868 35.8912 14.3868 36.4995C14.3868 39.4035 14.9587 42.2789 16.07 44.9618C17.1813 47.6446 18.8101 50.0824 20.8635 52.1357C25.0105 56.2827 30.635 58.6125 36.4997 58.6125C39.3633 58.6125 42.1291 58.05 44.6656 57.0348C45.1572 56.838 45.7256 57.0329 45.9697 57.5029C47.1245 59.7273 47.7724 61.0461 47.9499 61.4716C47.9916 61.5713 47.9441 61.6416 47.8416 61.6757C42.9284 63.3137 39.1183 64.1179 36.4997 64.1179C29.1388 64.1179 22.1126 61.2283 16.9418 56.027C13.9701 53.0645 11.7191 49.463 10.3577 45.5007C10.2157 45.0876 9.83116 44.8033 9.39427 44.8033H7.08301C6.53072 44.8033 6.08301 44.3556 6.08301 43.8033V31.9637C6.08301 31.4114 6.53072 30.9637 7.08301 30.9637H8.58298C9.0577 30.9637 9.46509 30.6294 9.57429 30.1674C10.6578 25.5833 12.896 21.3472 16.0815 17.865C19.4508 14.1821 23.7542 11.48 28.5352 10.0454C33.3161 8.61083 38.3963 8.49727 43.2365 9.71678C48.0768 10.9363 52.4967 13.4434 56.0272 16.972C59.6667 20.5972 62.2076 25.1699 63.3668 30.163C63.4745 30.6271 63.8829 30.9637 64.3592 30.9637H65.9163C66.4686 30.9637 66.9163 31.4114 66.9163 31.9637V44.672C66.9163 44.7445 66.8575 44.8033 66.785 44.8033C66.7521 44.8033 66.7204 44.8156 66.6962 44.8379L56.2413 54.4411C56.028 54.637 55.7402 54.7308 55.4524 54.6982L40.6722 53.025C40.1667 52.9678 39.7847 52.5401 39.7847 52.0314V48.845C39.7847 48.2927 40.2324 47.845 40.7847 47.845H54.0082C54.3046 47.845 54.5857 47.7134 54.7757 47.4859L56.8411 45.0126ZM28.1959 35.8C29.1084 35.8 29.9905 36.165 30.6293 36.8341C31.2712 37.4813 31.6314 38.3559 31.6314 39.2675C31.6314 40.179 31.2712 41.0536 30.6293 41.7008C29.9905 42.3395 29.1084 42.7045 28.1959 42.7045C26.2797 42.7045 24.7284 41.1837 24.7284 39.2675C24.7284 37.3512 26.2797 35.8 28.1959 35.8ZM44.773 35.8C46.6893 35.8 48.2101 37.3512 48.2101 39.2675C48.2101 41.1837 46.6893 42.7045 44.773 42.7045C42.8568 42.7045 41.3055 41.1837 41.3055 39.2675C41.3055 38.3478 41.6708 37.4658 42.3211 36.8156C42.9714 36.1653 43.8534 35.8 44.773 35.8Z" fill="white"/>
</g>
</svg>
