<svg width="73" height="73" viewBox="0 0 73 73" fill="none" xmlns="http://www.w3.org/2000/svg">
<g id="mdi:robot-industrial-outline">
<circle id="Ellipse 44" cx="18.5" cy="19.5" r="11.5" fill="#F04304"/>
<path id="Vector" d="M12.1663 57.791H24.4262C25.1959 57.791 25.677 56.9578 25.2922 56.2911L7.96884 26.2794C6.78259 24.3327 6.08301 22.1731 6.08301 19.7702C6.08572 16.8117 7.16661 13.9555 9.12333 11.7365C11.0801 9.51747 13.7785 8.08766 16.7134 7.71473C19.6483 7.3418 22.6186 8.05133 25.0681 9.71049C27.3034 11.2246 28.9652 13.4348 29.803 15.9861C29.9452 16.419 30.3391 16.7285 30.7947 16.7285H41.583C42.1353 16.7285 42.583 16.2808 42.583 15.7285V9.12435C42.583 6.11743 44.794 3.60185 47.6705 3.12307C48.2153 3.03239 48.6663 3.48873 48.6663 4.04102V8.50472C48.6663 9.39562 49.7435 9.84179 50.3734 9.21183L53.2097 6.37558C53.3972 6.18804 53.6516 6.08268 53.9168 6.08268H65.9163C66.4686 6.08268 66.9163 6.5304 66.9163 7.08268V11.166C66.9163 11.7183 66.4686 12.166 65.9163 12.166H56.411C56.1458 12.166 55.8914 12.2714 55.7039 12.4589L48.8599 19.3029C48.736 19.4268 48.6663 19.5949 48.6663 19.7702C48.6663 19.9455 48.736 20.1136 48.8599 20.2375L55.7039 27.0815C55.8914 27.269 56.1458 27.3743 56.411 27.3743H65.9163C66.4686 27.3743 66.9163 27.8221 66.9163 28.3743V32.4577C66.9163 33.01 66.4686 33.4577 65.9163 33.4577H53.9168C53.6516 33.4577 53.3972 33.3523 53.2097 33.1648L50.3734 30.3285C49.7435 29.6986 48.6663 30.1447 48.6663 31.0356V35.4993C48.6663 36.0516 48.2156 36.5077 47.6708 36.4174C46.4266 36.211 45.2682 35.621 44.3648 34.7176C43.2239 33.5767 42.583 32.0294 42.583 30.416V23.8118C42.583 23.2596 42.1353 22.8118 41.583 22.8118H30.7969C30.3402 22.8118 29.9456 23.1226 29.8038 23.5567C29.5664 24.2832 29.2624 24.9834 28.9067 25.6496C28.7371 25.9672 28.733 26.3504 28.9129 26.6623L46.5831 57.2907C46.7617 57.6003 47.0919 57.791 47.4493 57.791H60.833C62.4464 57.791 63.9937 58.4319 65.1346 59.5728C66.2754 60.7136 66.9163 62.261 66.9163 63.8744V65.916C66.9163 66.4683 66.4686 66.916 65.9163 66.916H7.08301C6.53072 66.916 6.08301 66.4683 6.08301 65.916V63.8744C6.08301 60.5285 8.82051 57.791 12.1663 57.791ZM24.5568 31.2789C24.2817 30.8018 23.6742 30.6413 23.174 30.8719C22.1792 31.3304 21.1064 31.6514 19.9764 31.8141C19.2144 31.9239 18.7312 32.7704 19.1163 33.437L32.8955 57.2912C33.0742 57.6005 33.4043 57.791 33.7615 57.791H38.1145C38.8841 57.791 39.3652 56.9581 38.9808 56.2915L24.5568 31.2789ZM18.2497 13.6868C16.6363 13.6868 15.089 14.3278 13.9481 15.4686C12.8073 16.6095 12.1663 18.1568 12.1663 19.7702C12.1663 23.1464 14.8734 25.8535 18.2497 25.8535C21.6259 25.8535 24.333 23.1464 24.333 19.7702C24.333 18.1568 23.6921 16.6095 22.5512 15.4686C21.4104 14.3278 19.8631 13.6868 18.2497 13.6868Z" fill="white"/>
</g>
</svg>
