<svg width="72" height="72" viewBox="0 0 72 72" fill="none" xmlns="http://www.w3.org/2000/svg">
<g id="solar:hand-money-linear">
<circle id="Ellipse 44" cx="36.0001" cy="20.8809" r="7.92" fill="#F04304"/>
<g id="Group">
<path id="Vector" d="M52.242 31.242C54 29.484 54 26.658 54 21C54 15.342 54 12.516 52.242 10.758M52.242 31.242C50.484 33 47.658 33 42 33H30C24.342 33 21.516 33 19.758 31.242M52.242 10.758C50.484 9 47.658 9 42 9H30C24.342 9 21.516 9 19.758 10.758M19.758 10.758C18 12.516 18 15.342 18 21C18 26.658 18 29.484 19.758 31.242M39 21C39 21.7956 38.6839 22.5587 38.1213 23.1213C37.5587 23.6839 36.7956 24 36 24C35.2044 24 34.4413 23.6839 33.8787 23.1213C33.3161 22.5587 33 21.7956 33 21C33 20.2043 33.3161 19.4413 33.8787 18.8787C34.4413 18.3161 35.2044 18 36 18C36.7956 18 37.5587 18.3161 38.1213 18.8787C38.6839 19.4413 39 20.2043 39 21Z" stroke="white" stroke-width="3.51"/>
<path id="Vector_2" d="M54 18C51.6131 18 49.3239 17.0518 47.636 15.364C45.9482 13.6761 45 11.3869 45 9M54 24C51.6131 24 49.3239 24.9482 47.636 26.636C45.9482 28.3239 45 30.6131 45 33M18 18C20.3869 18 22.6761 17.0518 24.364 15.364C26.0518 13.6761 27 11.3869 27 9M18 24C20.3869 24 22.6761 24.9482 24.364 26.636C26.0518 28.3239 27 30.6131 27 33M15 61.164H21.78C24.81 61.164 27.879 61.482 30.828 62.088C36.093 63.1696 41.5103 63.2896 46.818 62.442C49.422 62.022 51.978 61.377 54.294 60.261C56.382 59.25 58.941 57.831 60.66 56.238C62.376 54.648 64.164 52.047 65.43 50.013C66.522 48.267 65.994 46.128 64.272 44.829C63.3044 44.1251 62.1386 43.746 60.942 43.746C59.7454 43.746 58.5796 44.1251 57.612 44.829L52.191 48.924C50.091 50.514 47.796 51.975 45.063 52.41C44.733 52.461 44.388 52.509 44.028 52.551M44.028 52.551C43.9181 52.5637 43.8081 52.5757 43.698 52.587M44.028 52.551C44.5082 52.4211 44.9484 52.1737 45.309 51.831C45.7611 51.4399 46.1302 50.9622 46.3947 50.4262C46.6591 49.8901 46.8135 49.3065 46.8488 48.7098C46.884 48.113 46.7993 47.5153 46.5998 46.9518C46.4003 46.3884 46.0899 45.8706 45.687 45.429C45.2961 44.995 44.8408 44.6237 44.337 44.328C35.946 39.321 22.887 43.134 15 48.729M44.028 52.551C43.9196 52.5746 43.809 52.5867 43.698 52.587M43.698 52.587C41.8888 52.7688 40.066 52.7728 38.256 52.599" stroke="white" stroke-width="3.51" stroke-linecap="round"/>
<path id="Vector_3" d="M15 46.5C15 44.0147 12.9853 42 10.5 42C8.01472 42 6 44.0147 6 46.5V61.5C6 63.9853 8.01472 66 10.5 66C12.9853 66 15 63.9853 15 61.5V46.5Z" fill="#F04304" stroke="white" stroke-width="3.51"/>
</g>
</g>
</svg>
